<svg width="20" height="20" viewBox="0 0 20 20" fill="none" xmlns="http://www.w3.org/2000/svg">
<path fill-rule="evenodd" clip-rule="evenodd" d="M9.29292 2.70711C9.68344 2.31658 10.3166 2.31658 10.7071 2.70711L17.2929 9.2929C17.8164 9.81636 17.5968 10.6486 16.9965 10.915C16.9988 10.943 17 10.9714 17 11V17C17 17.5523 16.5523 18 16 18H13C12.4477 18 12 17.5523 12 17V11L12 11C12 10.4477 11.5523 10 11 10H9C8.44771 10 8 10.4477 8 11V17C8 17.0014 8.00001 17.0029 8.00001 17.0043C7.99768 17.5546 7.55086 18 7.00002 18H4.00002C3.44774 18 3.00002 17.5523 3.00002 17V11C3.00002 10.9714 3.00123 10.943 3.00359 10.915C2.40323 10.6486 2.18366 9.81636 2.70713 9.2929L9.29292 2.70711Z"/>
</svg>
