<svg width="40" height="40" viewBox="0 0 40 40" fill="none" xmlns="http://www.w3.org/2000/svg">
<path fill-rule="evenodd" clip-rule="evenodd" d="M20.866 4.5C20.4811 3.83333 19.5189 3.83333 19.134 4.5L15.8847 10.1279L9.69385 8.4691C8.95028 8.26986 8.26986 8.95027 8.4691 9.69384L10.1279 15.8847L4.5 19.134C3.83333 19.5189 3.83333 20.4811 4.5 20.866L10.1473 24.1265L8.4691 30.3894C8.26986 31.133 8.95028 31.8134 9.69385 31.6142L15.9263 29.9442L19.134 35.5C19.5189 36.1667 20.4811 36.1667 20.866 35.5L24.0848 29.9248L30.3894 31.6142C31.133 31.8134 31.8134 31.133 31.6142 30.3894L29.9249 24.0848L35.5 20.866C36.1667 20.4811 36.1667 19.5189 35.5 19.134L29.9442 15.9263L31.6142 9.69384C31.8134 8.95027 31.133 8.26986 30.3894 8.4691L24.1265 10.1473L20.866 4.5ZM20 29C24.9706 29 29 24.9706 29 20C29 15.0294 24.9706 11 20 11C15.0294 11 11 15.0294 11 20C11 24.9706 15.0294 29 20 29Z" fill="#FFC700"/>
<circle cx="20" cy="20" r="7" fill="#FFC700"/>
</svg>
